<svg width="16" height="17" viewBox="0 0 16 17" fill="none" xmlns="http://www.w3.org/2000/svg">
<path d="M8.40375 5.1124V11.4584L11.5962 8.2854L8.40375 5.1124ZM1.6155 16.2854C1.168 16.2854 0.786833 16.1281 0.472 15.8134C0.157333 15.4986 0 15.1174 0 14.6699V1.9009C0 1.4534 0.157333 1.07223 0.472 0.757401C0.786833 0.442734 1.168 0.2854 1.6155 0.2854H14.3845C14.832 0.2854 15.2132 0.442734 15.528 0.757401C15.8427 1.07223 16 1.4534 16 1.9009V14.6699C16 15.1174 15.8427 15.4986 15.528 15.8134C15.2132 16.1281 14.832 16.2854 14.3845 16.2854H1.6155ZM4 15.2854V1.2854H1.6155C1.4615 1.2854 1.32042 1.34948 1.19225 1.47765C1.06408 1.60582 1 1.7469 1 1.9009V14.6699C1 14.8239 1.06408 14.965 1.19225 15.0932C1.32042 15.2213 1.4615 15.2854 1.6155 15.2854H4ZM5 15.2854H14.3845C14.5385 15.2854 14.6796 15.2213 14.8077 15.0932C14.9359 14.965 15 14.8239 15 14.6699V1.9009C15 1.7469 14.9359 1.60582 14.8077 1.47765C14.6796 1.34948 14.5385 1.2854 14.3845 1.2854H5V15.2854Z" fill="#181B29"/>
</svg>
