<svg width="17" height="16" viewBox="0 0 17 16" fill="none" xmlns="http://www.w3.org/2000/svg">
<path d="M11.714 11.173V4.827L8.52155 8L11.714 11.173ZM1.7333 16C1.2858 16 0.904631 15.8427 0.589798 15.528C0.275131 15.2132 0.117798 14.832 0.117798 14.3845V1.6155C0.117798 1.168 0.275131 0.786833 0.589798 0.472C0.904631 0.157333 1.2858 0 1.7333 0H14.5023C14.9498 0 15.331 0.157333 15.6458 0.472C15.9605 0.786833 16.1178 1.168 16.1178 1.6155V14.3845C16.1178 14.832 15.9605 15.2132 15.6458 15.528C15.331 15.8427 14.9498 16 14.5023 16H1.7333ZM4.1178 15V1H1.7333C1.5793 1 1.43821 1.06408 1.31005 1.19225C1.18188 1.32042 1.1178 1.4615 1.1178 1.6155V14.3845C1.1178 14.5385 1.18188 14.6796 1.31005 14.8077C1.43821 14.9359 1.5793 15 1.7333 15H4.1178ZM5.1178 15H14.5023C14.6563 15 14.7974 14.9359 14.9255 14.8077C15.0537 14.6796 15.1178 14.5385 15.1178 14.3845V1.6155C15.1178 1.4615 15.0537 1.32042 14.9255 1.19225C14.7974 1.06408 14.6563 1 14.5023 1H5.1178V15Z" fill="#181B29"/>
</svg>
